<svg width="16" height="16" viewBox="0 0 16 16" fill="none" xmlns="http://www.w3.org/2000/svg">
<path d="M6.66199 7.32812V11.3253" stroke="#FB2C36" stroke-width="1.33239" stroke-linecap="round" stroke-linejoin="round"/>
<path d="M9.32678 7.32812V11.3253" stroke="#FB2C36" stroke-width="1.33239" stroke-linecap="round" stroke-linejoin="round"/>
<path d="M12.6577 3.99707V13.3238C12.6577 13.6772 12.5173 14.0161 12.2674 14.266C12.0176 14.5158 11.6787 14.6562 11.3253 14.6562H4.66333C4.30995 14.6562 3.97105 14.5158 3.72118 14.266C3.47131 14.0161 3.33093 13.6772 3.33093 13.3238V3.99707" stroke="#FB2C36" stroke-width="1.33239" stroke-linecap="round" stroke-linejoin="round"/>
<path d="M1.99854 3.99707H13.9901" stroke="#FB2C36" stroke-width="1.33239" stroke-linecap="round" stroke-linejoin="round"/>
<path d="M5.32959 3.99731V2.66491C5.32959 2.31154 5.46997 1.97264 5.71984 1.72277C5.96971 1.4729 6.30861 1.33252 6.66198 1.33252H9.32677C9.68014 1.33252 10.019 1.4729 10.2689 1.72277C10.5188 1.97264 10.6592 2.31154 10.6592 2.66491V3.99731" stroke="#FB2C36" stroke-width="1.33239" stroke-linecap="round" stroke-linejoin="round"/>
</svg>
