<svg xmlns="http://www.w3.org/2000/svg" width="20" height="20" fill="none" viewBox="0 0 20 20">
  <path
    fill="#111827"
    d="M10 4.167c4.17 0 7.486 2.868 8.75 5.833-1.264 2.965-4.58 5.833-8.75 5.833s-7.486-2.868-8.75-5.833C2.514 7.035 5.83 4.167 10 4.167Zm0 1.666c-3.055 0-5.77 2.073-6.86 4.167 1.09 2.094 3.805 4.167 6.86 4.167s5.77-2.073 6.86-4.167C15.77 7.906 13.055 5.833 10 5.833Zm0 1.667a3.333 3.333 0 1 1 0 6.667 3.333 3.333 0 0 1 0-6.667Zm0 1.667a1.667 1.667 0 1 0 0 3.333 1.667 1.667 0 0 0 0-3.333Z"
  />
</svg>
