<svg width="20" height="20" viewBox="0 0 20 20" fill="none" xmlns="http://www.w3.org/2000/svg">
<path d="M15.8333 9.16666H4.16667C3.24619 9.16666 2.5 9.91285 2.5 10.8333V16.6667C2.5 17.5871 3.24619 18.3333 4.16667 18.3333H15.8333C16.7538 18.3333 17.5 17.5871 17.5 16.6667V10.8333C17.5 9.91285 16.7538 9.16666 15.8333 9.16666Z" stroke="#9CA3AF" stroke-width="1.66667" stroke-linecap="round" stroke-linejoin="round"/>
<path d="M5.83333 9.16666V5.83332C5.83333 4.72825 6.27232 3.66845 7.05372 2.88704C7.83512 2.10564 8.89493 1.66666 9.99999 1.66666C11.1051 1.66666 12.1649 2.10564 12.9463 2.88704C13.7277 3.66845 14.1667 4.72825 14.1667 5.83332V9.16666" stroke="#9CA3AF" stroke-width="1.66667" stroke-linecap="round" stroke-linejoin="round"/>
</svg>
