<svg width="20" height="20" viewBox="0 0 20 20" fill="none" xmlns="http://www.w3.org/2000/svg">
<g clip-path="url(#clip0_1_667)">
<path d="M11.5267 13.8067C11.6988 13.8857 11.8927 13.9038 12.0764 13.8579C12.2602 13.812 12.4228 13.7048 12.5375 13.5542L12.8334 13.1667C12.9886 12.9597 13.1899 12.7917 13.4213 12.6759C13.6528 12.5602 13.9079 12.5 14.1667 12.5H16.6667C17.1087 12.5 17.5326 12.6756 17.8452 12.9881C18.1578 13.3007 18.3334 13.7246 18.3334 14.1667V16.6667C18.3334 17.1087 18.1578 17.5326 17.8452 17.8452C17.5326 18.1577 17.1087 18.3333 16.6667 18.3333C12.6884 18.3333 8.87313 16.753 6.06009 13.9399C3.24704 11.1269 1.66669 7.31157 1.66669 3.33332C1.66669 2.8913 1.84228 2.46737 2.15484 2.15481C2.4674 1.84225 2.89133 1.66666 3.33335 1.66666H5.83335C6.27538 1.66666 6.6993 1.84225 7.01186 2.15481C7.32443 2.46737 7.50002 2.8913 7.50002 3.33332V5.83332C7.50002 6.09206 7.43978 6.34725 7.32407 6.57868C7.20835 6.8101 7.04035 7.01141 6.83335 7.16666L6.44335 7.45916C6.29037 7.57597 6.18254 7.74214 6.13818 7.92945C6.09382 8.11675 6.11567 8.31364 6.20002 8.48666C7.33892 10.7999 9.21204 12.6707 11.5267 13.8067Z" stroke="#9CA3AF" stroke-width="1.66667" stroke-linecap="round" stroke-linejoin="round"/>
</g>
<defs>
<clipPath id="clip0_1_667">
<rect width="20" height="20" fill="white"/>
</clipPath>
</defs>
</svg>
